<svg xmlns="http://www.w3.org/2000/svg" viewBox="0 0 174.61 179.71"><title>Recurso 2</title><g id="Capa_2" data-name="Capa 2"><g id="Capa_1-2" data-name="Capa 1"><path d="M174.61,10.91V168.8a30.56,30.56,0,0,1-2.09,5.14,12.16,12.16,0,0,1-10.93,5.77H122.22c-.49,0-1-.05-1.53-.08V110.1h22.66c1.13-9,2.24-18,3.37-27.09h-26a5.49,5.49,0,0,1-.15-.8c0-6.48,0-12.95.14-19.43.11-6,4.47-10,10.29-10.26,4.59-.21,9.2-.11,13.8-.15h2.45a3.43,3.43,0,0,0,.21-.71c0-7.5,0-15,0-22.5,0-1.06-.57-1.17-1.4-1.22-5.16-.28-10.31-.7-15.47-.85-6.77-.2-13.42.17-19.63,3.51-3.91,2.1-7.56,4.44-10.28,8a34.71,34.71,0,0,0-7.22,20.35c-.29,7.32-.16,14.66-.21,22,0,.66,0,1.32,0,2.15H70.73v27.11H93.19v69.47c-.43,0-.77.08-1.1.08q-39.72,0-79.43,0A13.14,13.14,0,0,1,9,179.12C3.32,177.43.05,172.58.05,165.94q0-75.69,0-151.38C0,7.64,3.44,1.52,10.5.12c.05,0,.08-.08.12-.12H164a2.69,2.69,0,0,0,.59.29c3.86.92,6.83,3,8.46,6.69C173.65,8.26,174.1,9.6,174.61,10.91Z"/></g></g></svg>