<svg xmlns="http://www.w3.org/2000/svg" viewBox="0 0 174.63 179.72"><title>Recurso 4</title><g id="Capa_2" data-name="Capa 2"><g id="Capa_1-2" data-name="Capa 1"><path d="M0,168.81V10.92c.13-.37.28-.73.38-1.1C1.59,5.69,3.81,2.36,8,.92A17.39,17.39,0,0,1,13.54,0Q87.26,0,161,0c.57,0,1.14,0,1.7,0a11.83,11.83,0,0,1,9.49,5.25A15.27,15.27,0,0,1,174.63,14q-.07,75.86,0,151.71c0,.57,0,1.14,0,1.7-.45,5-2.56,8.9-7.22,11.12a34.63,34.63,0,0,1-3.32,1.22H10.57c-.36-.13-.71-.28-1.08-.38a12.07,12.07,0,0,1-7.62-5.72A34,34,0,0,1,0,168.81ZM36.92,90h.28c0,4.43-.17,8.87,0,13.3a120.5,120.5,0,0,0,1.4,16.25c1.72,9.31,7.43,15.82,16.12,19.37a30.08,30.08,0,0,0,10.6,2.17q21.9.36,43.8.05a27,27,0,0,0,22.16-11.05A29.47,29.47,0,0,0,137,112.51c.28-12.83.33-25.68.3-38.52a77,77,0,0,0-.94-12c-1.69-10.41-7.61-17.66-17.41-21.46a27.66,27.66,0,0,0-9.47-1.83q-22.16-.28-44.31,0a27.44,27.44,0,0,0-13,3.43c-9,4.87-13.46,12.58-14.31,22.36C37.17,72.9,37.22,81.45,36.92,90Z"/><path d="M128.56,89.61c-.23,8.14-.16,16-.73,23.81C127.05,124,121.12,131,110,131.62a411.17,411.17,0,0,1-45.64,0,17.83,17.83,0,0,1-11.52-4.49,18.89,18.89,0,0,1-6-13.13,382.51,382.51,0,0,1,.07-48.36c.72-10.06,6.86-16.86,17.43-17.5a410,410,0,0,1,46,0,21.06,21.06,0,0,1,5.8,1.22c7.78,2.74,11.13,8.9,11.71,16.57C128.38,73.88,128.33,81.91,128.56,89.61ZM113,89.87c.14-15.08-12.42-26.63-25.77-26.6S61.5,74.94,61.54,90c0,14.6,12.17,26.49,25.72,26.51S113.19,104.54,113,89.87Zm7-27.56a6,6,0,0,0-12-.15c0,3.69,2.51,6.42,6,6.41A6,6,0,0,0,120.05,62.31Z"/><path d="M104,89.88c-.1,9-6.89,17.24-16.76,17.2S70.66,98.87,70.61,89.93A16.7,16.7,0,1,1,104,89.88Z"/></g></g></svg>