<svg xmlns="http://www.w3.org/2000/svg" viewBox="0 0 174.63 179.72"><title>Recurso 5</title><g id="Capa_2" data-name="Capa 2"><g id="Capa_1-2" data-name="Capa 1"><path d="M0,168.81V10.92c.13-.37.28-.73.38-1.1C1.59,5.69,3.81,2.36,8,.92A17.39,17.39,0,0,1,13.54,0Q87.26,0,161,0c.57,0,1.14,0,1.7,0a11.83,11.83,0,0,1,9.49,5.25A15.27,15.27,0,0,1,174.63,14q-.07,75.86,0,151.71c0,.57,0,1.14,0,1.7-.45,5-2.56,8.9-7.22,11.12a34.63,34.63,0,0,1-3.32,1.22H10.57c-.36-.13-.71-.28-1.08-.38a12.07,12.07,0,0,1-7.62-5.72A34,34,0,0,1,0,168.81ZM89.58,38.61v2.33c0,22.38,0,44.77-.08,67.16a20.93,20.93,0,0,1-1.1,7c-2.44,6.6-9.25,10.23-16.33,9a14.78,14.78,0,0,1-12-14c-.34-7.07,4.2-13.71,10.85-15.23,2.68-.61,5.57-.36,8.4-.5V77.81a93.88,93.88,0,0,0-9.63.49,30.59,30.59,0,0,0-25.49,25c-2.82,15.07,4.37,28.91,18.06,35.18,12.51,5.72,26.16,2.76,35.85-8.1,5.49-6.15,7.87-13.54,7.84-21.75l-.12-34.43c0-.59,0-1.17,0-2.1,7.72,5.59,15.72,9.18,25.09,8.79V64.28C118,64,106.52,54.53,105.65,38.61Z"/></g></g></svg>