<svg xmlns="http://www.w3.org/2000/svg" viewBox="0 0 174.98 180.14"><title>Recurso 6</title><g id="Capa_2" data-name="Capa 2"><g id="Capa_1-2" data-name="Capa 1"><path d="M164.11,0H10.88A10.9,10.9,0,0,0,0,10.88V169.27a10.9,10.9,0,0,0,10.88,10.87H164.11A10.9,10.9,0,0,0,175,169.27V10.88A10.9,10.9,0,0,0,164.11,0Zm-9.74,94.69c-.26,8.22-1,16.42-1.8,24.61-.56,6.06-2.93,11.21-8.12,14.64-3.14,2.07-6.68,2.66-10.27,3.05a371.36,371.36,0,0,1-41.91,1.78c-14-.07-28.07-.5-42.1-1a118.65,118.65,0,0,1-13.67-1.44c-7.64-1.17-13.07-6.54-14.4-14.67-1-6.2-1.57-12.5-2-18.78a206.6,206.6,0,0,1,.3-30.47,115.78,115.78,0,0,1,1.84-14.15C23.94,50,29.59,45,37.76,43.91c13.12-1.69,26.31-1.84,39.5-2.07,3.19-.05,6.37,0,9.55,0,0-.15,0-.3,0-.45,13.84.56,27.68,1.07,41.51,1.71a71,71,0,0,1,9.74,1.2c7.78,1.47,12.76,6.86,14.24,15.27A171.39,171.39,0,0,1,154.37,94.69Z"/><path d="M73.72,111.08l35-20.78-35-20.77Z"/></g></g></svg>