<svg id="Capa_1" data-name="Capa 1" xmlns="http://www.w3.org/2000/svg" viewBox="0 0 786.87 555.48"><defs><style>.cls-1{fill:#e8e8e8;}</style></defs><title>fondo1</title><rect class="cls-1" x="1415.17" y="572.3" width="7.16" height="37.6" transform="translate(-1249.64 -41.99) rotate(-8.94)"/><polygon class="cls-1" points="302.54 277.78 322.59 225.7 283.68 246.7 252.91 247.01 313.41 89.89 257.02 103.5 244.18 136.86 255.99 132.58 193.76 294.2 302.54 277.78"/><path class="cls-1" d="M1367.75,621.06a26.09,26.09,0,0,0,8.51,2.37,38.38,38.38,0,0,0,10.12-.34,34.57,34.57,0,0,0,9.82-3,33,33,0,0,0,8.32-5.75l-2.29-2.23a31.8,31.8,0,0,1-7.67,4.92,34,34,0,0,1-9,2.69q-9.87,1.56-16.54-2.28a15.72,15.72,0,0,1-7.93-11.8,19.21,19.21,0,0,1,1.19-10.51,21.43,21.43,0,0,1,6.72-8.67,22.29,22.29,0,0,1,5.7-3.35,31.59,31.59,0,0,1,7.11-1.93q8.55-1.35,14.46,1.85a12.76,12.76,0,0,1,6.94,9.66,14.15,14.15,0,0,1-.21,5.66,13.18,13.18,0,0,1-2.4,5A11.3,11.3,0,0,1,1398,606a7,7,0,0,1-2.92,1.26,3.09,3.09,0,0,1-2.06-.28,1.89,1.89,0,0,1-1-1.43,5.64,5.64,0,0,1,0-1,2.91,2.91,0,0,1,0-.31l1.83-15.61-4.35.69-1.13,3a7.1,7.1,0,0,0-3.23-2.3,9.22,9.22,0,0,0-4.35-.22,12.62,12.62,0,0,0-8.76,5.62,14.31,14.31,0,0,0-2.32,10.69,8.56,8.56,0,0,0,3.28,6c1.75,1.24,4,1.63,6.92,1.18a11.15,11.15,0,0,0,4.81-1.82,10,10,0,0,0,3.11-3.82v.1a3.7,3.7,0,0,0,1.95,3,7.77,7.77,0,0,0,4.6.34,15.74,15.74,0,0,0,4.64-1.48,15,15,0,0,0,3.9-2.79,17.29,17.29,0,0,0,4.28-6.87,16.84,16.84,0,0,0,.63-8,16,16,0,0,0-3.07-7.38,18.08,18.08,0,0,0-6.55-5.12,23.5,23.5,0,0,0-7.72-2.12,34,34,0,0,0-9.09.24,34.57,34.57,0,0,0-12.62,4.42,27.45,27.45,0,0,0-8.9,8.51,22.69,22.69,0,0,0-3.23,7.63,22.06,22.06,0,0,0-.21,8.23,19.14,19.14,0,0,0,3.59,8.78A20.58,20.58,0,0,0,1367.75,621.06Zm17.33-13.65a7.22,7.22,0,0,1-4.35,2.43,4.89,4.89,0,0,1-3.85-.78,5.45,5.45,0,0,1-1.89-3.65,12.65,12.65,0,0,1,1.31-8.33,7.7,7.7,0,0,1,5.64-4.24,5.13,5.13,0,0,1,3.64.63,5.64,5.64,0,0,1,2.27,3l-.64,6.06A8.47,8.47,0,0,1,1385.08,607.41Z" transform="translate(-1175.01 -269.69)"/><polygon class="cls-1" points="293.89 380.6 289.06 392.73 299.75 418.17 323.49 356.51 258.06 366.8 246.22 397.56 258.08 419.95 252.16 435.33 221.17 396.41 237.31 394.29 247.2 368.62 171.01 380.43 274.08 511.24 302.62 437.1 278.98 392.51 293.89 380.6"/><rect class="cls-1" x="1498.44" y="559.2" width="7.16" height="37.6" transform="translate(-1246.59 -29.21) rotate(-8.94)"/><path class="cls-1" d="M1466.49,496.57l38.7-20.92,11.9-30.9,23.77-8.51L1499.3,544.18l32.9-5,80.22-208.33-101.23,23.66-13.58,35.25,10.46-1.64Zm74.34-113.48,23.83-8.65-11.9,30.9L1528.93,414Z" transform="translate(-1175.01 -269.69)"/><rect class="cls-1" x="1469.45" y="608" width="29.31" height="4.44" transform="translate(-1251.82 -31.59) rotate(-8.94)"/><rect class="cls-1" x="1513.85" y="566.02" width="7.16" height="28.4" transform="translate(-1246.75 -26.79) rotate(-8.94)"/><path class="cls-1" d="M1435,603.88a16.59,16.59,0,0,0,12.19,2.43,15.79,15.79,0,0,0,5.88-1.94,7.81,7.81,0,0,0,3.18-3.67l.54,3.45,7-1.1L1459.33,575l-7.07,1.11.53,3.39a9.12,9.12,0,0,0-4.43-2.46,15.3,15.3,0,0,0-6-.1,18.07,18.07,0,0,0-6.19,2.06,15.07,15.07,0,0,0-4.63,4.08,14.37,14.37,0,0,0-2.58,5.19,14.14,14.14,0,0,0-.27,5.8A13.9,13.9,0,0,0,1435,603.88Zm2.81-17.2a9.15,9.15,0,0,1,5.91-3.32,8.73,8.73,0,0,1,6.51,1.5,7.89,7.89,0,0,1,3.54,5.46,7.49,7.49,0,0,1-1.72,6,8.71,8.71,0,0,1-5.64,3.34,9.22,9.22,0,0,1-6.75-1.38,7.79,7.79,0,0,1-3.55-5.52A7.46,7.46,0,0,1,1437.78,586.68Z" transform="translate(-1175.01 -269.69)"/><rect class="cls-1" x="1510.71" y="557.08" width="7.16" height="6.3" transform="translate(-1243.68 -27.49) rotate(-8.94)"/><path class="cls-1" d="M1534.37,563.58a17.22,17.22,0,0,0-4.83,4.34,14.39,14.39,0,0,0-2.56,5.17,14,14,0,0,0-.24,5.7,13.61,13.61,0,0,0,2.09,5.38,14.77,14.77,0,0,0,4.17,4.24,16.06,16.06,0,0,0,5.76,2.46,18.32,18.32,0,0,0,6.58.1,16.69,16.69,0,0,0,8.72-4,15.82,15.82,0,0,0,4.8-8.07l-7.8,1.23a7.58,7.58,0,0,1-2.66,3.06,10.27,10.27,0,0,1-4.23,1.61A9.71,9.71,0,0,1,1538,584a6.86,6.86,0,0,1-3.43-4.37l24.91-3.92c0-.15,0-.38-.08-.7s-.06-.55-.08-.71a17.07,17.07,0,0,0-1.54-5,12.11,12.11,0,0,0-2.85-3.7,17.13,17.13,0,0,0-6.7-3.73,17.53,17.53,0,0,0-7.81-.47A16.17,16.17,0,0,0,1534.37,563.58Zm2,6.21a9,9,0,0,1,4.92-2.39,9.91,9.91,0,0,1,5.76.59,8.07,8.07,0,0,1,3.8,3.79L1534,574.44A7.8,7.8,0,0,1,1536.39,569.79Z" transform="translate(-1175.01 -269.69)"/><path class="cls-1" d="M1647.35,574.16l-2.25-14.31c-.46-2.92-.23-5,.71-6.33s2.79-2.27,5.57-2.92l-1-6.09a10,10,0,0,0-7.43,4.9l-.51-3.24-6.78,1.07,4.41,28.06Z" transform="translate(-1175.01 -269.69)"/><polygon class="cls-1" points="472.04 250.75 542.29 240.49 561.06 191.74 533.17 150.93 518.68 129.61 517.75 171.84 499.91 218.17 472.04 250.75"/><path class="cls-1" d="M1622.05,551.69a14.22,14.22,0,0,0-4.7-1.52,18.51,18.51,0,0,0-5.42.13,18.09,18.09,0,0,0-5.71,1.87,15.85,15.85,0,0,0-7.59,9.08,13.45,13.45,0,0,0-.46,6.19,14.09,14.09,0,0,0,2.51,6.13,15.37,15.37,0,0,0,5.16,4.51,15.16,15.16,0,0,0,5.05,1.71,18,18,0,0,0,5.67,0,17.11,17.11,0,0,0,5-1.56,16.77,16.77,0,0,0,4.17-3l.36,2.29,7.12-1.12-5.84-37.14-7.13,1.12Zm1.57,12a7.8,7.8,0,0,1-1.56,6.18,8.51,8.51,0,0,1-5.67,3.32,9.88,9.88,0,0,1-7.07-1.3,7.68,7.68,0,0,1-3.59-5.49,7.81,7.81,0,0,1,1.73-6.26,9.13,9.13,0,0,1,6-3.45,8.92,8.92,0,0,1,6.69,1.4A8,8,0,0,1,1623.62,563.65Z" transform="translate(-1175.01 -269.69)"/><path class="cls-1" d="M1956.91,631.7a112.94,112.94,0,0,0-67.3-138.39c-2.5-1-5-1.85-7.65-2.64a112.82,112.82,0,0,0-103.47,19.69l9-23.48,3.16-8.22-5.23-7.08-134.3-181.92-6-8.16-10,1.94-212.61,41.5-8.71,1.7-3.19,8.28-11.33,29.43a112.82,112.82,0,0,0-63.54-84q-3.69-1.72-7.44-3.17a112.93,112.93,0,0,0-144.9,148.43c11.49,27.73,27.91,50.79,24.1,82.49-2.49,20.71-9.94,41.11-6.77,62.2,4.42,29.3,29.85,52.81,59.18,55.84a65.82,65.82,0,0,0,31.27-4.53c1.1-.44,6.16-3.24,11.57-6.59l-9.94,25.81-3.41,8.87,6.13,7.25,136.48,161.53,5.62,6.65,8.64-1.09L1659,797.3l9.52-1.2,3.44-9L1682,761c1.76,6.12,3.65,11.6,4.17,12.67A65.91,65.91,0,0,0,1706.31,798c23.79,17.42,58.42,17,81.35-1.74,16.49-13.51,24.65-33.65,36.69-50.68,18.43-26.07,46.08-32.17,73.19-45A113.42,113.42,0,0,0,1956.91,631.7ZM1247.62,500.91a43.82,43.82,0,0,1-5.65-6.45,54.25,54.25,0,0,1-4.5-7.4,45.46,45.46,0,0,1-4.85-17.2,38.44,38.44,0,0,1,.5-9.37,36.16,36.16,0,0,1,2.93-9.09,39,39,0,0,1,5.11-8,41.81,41.81,0,0,1,3.17-3.46l.83-.82c.28-.28.56-.55.78-.75l1.41-1.32c7.4-7.1,13.88-15.3,17.75-24.51,1.92-4.56,3.17-9.45,2.76-14.07a11.94,11.94,0,0,0-2.39-6.23,10.22,10.22,0,0,0-1.2-1.27,12.28,12.28,0,0,0-1.49-1,14.55,14.55,0,0,0-3.57-1.52l.1-1.33a12.85,12.85,0,0,1,8.83,2.09,15.47,15.47,0,0,1,5.72,7.83,26.87,26.87,0,0,1,1.29,9.35,40.13,40.13,0,0,1-1.35,9.05c-3.16,11.73-10.16,21.75-18.49,29.9l-2.94,2.82a35.36,35.36,0,0,0-6.42,8.29,31.9,31.9,0,0,0-3.85,13.39,51,51,0,0,0,1.45,15,89.57,89.57,0,0,0,5.14,15.29Zm76.31,16c-3.5,6-11,5.31-17.29,5.85-1.19.1-2.42-.3-3.63-.25-22.87.85-43-47.05-27.46-64.48A238.35,238.35,0,0,0,1294,434.36c15.43-22.43,14.34-47,7.41-71.66-4.91-17.51-16.84-28-37.21-30,23.94-6.87,48.61,10.32,50.7,35.47,1.85,22.38,8.67,42.68,19,62.09,3.34,6.26,1.1,9.66-4.13,12.42a59.44,59.44,0,0,1-7.58,3.06c-15,5.41-20.29,15.26-15.91,30.56,2.61,9.09,7.46,17.16,12.47,25.15C1321.71,506.15,1327.3,511.13,1323.93,516.91Zm333,264.47-212.61,26.78L1307.85,646.63l65.6-170.38c15.71-41.48,34.45-91.64,39.08-101.77.28-.63.57-1.27.84-1.91l12.28-31.89,212.62-41.49,134.3,181.92Zm209.39-159.21a14.3,14.3,0,0,0-3.67-1.27,12.35,12.35,0,0,0-1.79-.23,11,11,0,0,0-1.74.13,12,12,0,0,0-6,3c-3.41,3.16-5.76,7.61-7.4,12.29-3.3,9.43-4,19.85-3.27,30.09l.17,1.92c0,.3,0,.69.07,1.08l.06,1.17a42.92,42.92,0,0,1,0,4.68,39.28,39.28,0,0,1-1.59,9.38,36.54,36.54,0,0,1-3.92,8.71,38.52,38.52,0,0,1-5.92,7.29,45.48,45.48,0,0,1-15.13,9.5,52.59,52.59,0,0,1-8.3,2.47,43.57,43.57,0,0,1-8.52,1l-.25-1.31a89.49,89.49,0,0,0,14.06-7.9A50.63,50.63,0,0,0,1824.45,694a31.84,31.84,0,0,0,6.12-12.51,35.26,35.26,0,0,0,.8-10.46l-.29-4.06c-.71-11.63.81-23.76,6.33-34.58a40.94,40.94,0,0,1,5.08-7.62,26.88,26.88,0,0,1,7.22-6.06,15.36,15.36,0,0,1,9.5-2,12.82,12.82,0,0,1,8,4.36Zm-14.06-47.36c-21.71,13.67-39,31.14-42.56,58.13a239.77,239.77,0,0,0-2.2,29.92c-.15,23.36-47.22,45.38-63.61,29.41-.86-.84-2-1.37-2.86-2.25-4.3-4.61-10.32-9.14-8.9-15.93,1.37-6.55,8.87-6.49,14.21-8,9.07-2.57,18.08-5.3,26.12-10.29,13.51-8.41,16.19-19.27,8.69-33.34a60,60,0,0,1-3.57-7.35c-2-5.56-1.41-9.58,5.26-12,20.7-7.45,39.37-17.94,55.75-33.29,18.42-17.27,48.25-13.47,61.4,7.69C1883.55,565.33,1867.67,565.12,1852.28,574.81Z" transform="translate(-1175.01 -269.69)"/><path class="cls-1" d="M1509,624.42l-15.75,40.91,9.82-1.72-48.24,124.86,33.77-5.49,35.25-91.54,33.34-7-35.92,93.29,22.7-3.59,59.33-154.08-6.62-9.21Zm59.75,30L1536,659.61l6.4-16.2,32.73-5.39Z" transform="translate(-1175.01 -269.69)"/><polygon class="cls-1" points="454.82 252.62 478.17 191.98 449.16 216.29 425.39 224.8 482.42 76.67 467.06 54.26 459.2 56.06 388.25 264.14 454.82 252.62"/><path class="cls-1" d="M1577.32,562.39c2.36-.38,4.13.06,5.31,1.3s2.06,3.75,2.66,7.51l2,12.42,7.24-1.14-2.34-14.85a26.58,26.58,0,0,0-1.36-5.62,10,10,0,0,0-2.09-3.24A10.54,10.54,0,0,0,1584,556a14.23,14.23,0,0,0-6-.23,11.6,11.6,0,0,0-4.54,1.66,10.12,10.12,0,0,0-3.18,3.4l-.5-3.19-7.07,1.12,4.41,28.06,7-1.1-1.89-12q-.89-5.61.33-8.17C1573.3,563.81,1574.91,562.76,1577.32,562.39Z" transform="translate(-1175.01 -269.69)"/><polygon class="cls-1" points="427.63 378.95 442.41 366.98 423.92 415 477.93 407.98 457.43 461.22 433.66 469.73 451.34 423.39 418.67 428.64 394.92 490.3 378.95 502.81 478.2 486.88 519.76 378.94 474.69 389.57 486.81 358.09 499.43 353.45 493.07 368.66 525.68 363.56 541.96 321.31 443.69 337.17 427.63 378.95"/><path class="cls-1" d="M1674.52,541.45a15.29,15.29,0,0,0-6-.11,18.28,18.28,0,0,0-6.19,2.06,15.24,15.24,0,0,0-4.63,4.09,14.37,14.37,0,0,0-2.58,5.19,14.1,14.1,0,0,0-.27,5.79,13.88,13.88,0,0,0,6.28,9.82,16.59,16.59,0,0,0,12.19,2.44,15.78,15.78,0,0,0,5.88-2,7.83,7.83,0,0,0,3.18-3.66l.54,3.45,7-1.1-4.41-28.06-7.07,1.11.53,3.39A9.12,9.12,0,0,0,1674.52,541.45Zm1.84,7.82a7.91,7.91,0,0,1,3.54,5.47,7.46,7.46,0,0,1-1.72,6,8.72,8.72,0,0,1-5.64,3.35,9.27,9.27,0,0,1-6.75-1.38,7.79,7.79,0,0,1-3.55-5.52,7.46,7.46,0,0,1,1.7-6.11,9.21,9.21,0,0,1,5.91-3.33A8.82,8.82,0,0,1,1676.36,549.27Z" transform="translate(-1175.01 -269.69)"/><path class="cls-1" d="M1700.78,537.35a15.36,15.36,0,0,0-4.63,4.09,14.19,14.19,0,0,0-2.57,5.19,14.45,14.45,0,0,0,6,15.61,16.59,16.59,0,0,0,12.19,2.44,15.78,15.78,0,0,0,5.88-1.95,7.83,7.83,0,0,0,3.18-3.66l.54,3.45,7-1.1-4.41-28.06-7.07,1.11.53,3.39a9.12,9.12,0,0,0-4.43-2.46,15.28,15.28,0,0,0-6-.11A18.28,18.28,0,0,0,1700.78,537.35Zm7.53,4.37a8.8,8.8,0,0,1,6.5,1.5,7.85,7.85,0,0,1,3.54,5.47,7.49,7.49,0,0,1-1.71,6,8.77,8.77,0,0,1-5.65,3.35,9.27,9.27,0,0,1-6.75-1.38,7.82,7.82,0,0,1-3.55-5.52,7.46,7.46,0,0,1,1.71-6.11A9.16,9.16,0,0,1,1708.31,541.72Z" transform="translate(-1175.01 -269.69)"/></svg>